{
    "asset" : {
        "generator" : "Khronos glTF Blender I/O v1.8.19",
        "version" : "2.0"
    },
    "scene" : 0,
    "scenes" : [
        {
            "name" : "Scene",
            "nodes" : [
                0,
                1,
                2,
                3,
                4,
                5,
                6,
                7
            ]
        }
    ],
    "nodes" : [
        {
            "mesh" : 0,
            "name" : "Plane",
            "scale" : [
                10,
                10,
                10
            ]
        },
        {
            "mesh" : 1,
            "name" : "Sphere",
            "scale" : [
                1.7736597061157227,
                1.7736597061157227,
                1.7736597061157227
            ],
            "translation" : [
                -0.14975261688232422,
                6.009470462799072,
                -6.796788692474365
            ]
        },
        {
            "mesh" : 2,
            "name" : "Cylinder",
            "rotation" : [
                -0.20064537227153778,
                0.291820228099823,
                -0.3454781472682953,
                0.8690381050109863
            ],
            "scale" : [
                1.2629412412643433,
                0.23525136709213257,
                1.2629412412643433
            ],
            "translation" : [
                -4.032382965087891,
                5.9468793869018555,
                -5.41073751449585
            ]
        },
        {
            "mesh" : 3,
            "name" : "Cylinder.001",
            "rotation" : [
                0.47597968578338623,
                0.776577353477478,
                0.25553789734840393,
                0.3241470754146576
            ],
            "scale" : [
                4.0196404457092285,
                0.052402395755052567,
                3.360375165939331
            ],
            "translation" : [
                0.360674649477005,
                8.476882934570312,
                -5.736024379730225
            ]
        },
        {
            "mesh" : 3,
            "name" : "Cylinder.002",
            "rotation" : [
                0.3560248613357544,
                0.8398301005363464,
                0.0008068314054980874,
                0.4097939133644104
            ],
            "scale" : [
                3.3386857509613037,
                0.04515974223613739,
                2.998314619064331
            ],
            "translation" : [
                0.184500053524971,
                5.048612117767334,
                -5.736024379730225
            ]
        },
        {
            "mesh" : 3,
            "name" : "Cylinder.003",
            "rotation" : [
                0.42253679037094116,
                0.8918951749801636,
                -0.07727035880088806,
                -0.14147424697875977
            ],
            "scale" : [
                2.7908618450164795,
                0.0377497598528862,
                2.506340265274048
            ],
            "translation" : [
                -2.0927772521972656,
                1.328237533569336,
                -5.4084601402282715
            ]
        },
        {
            "mesh" : 3,
            "name" : "Cylinder.004",
            "rotation" : [
                -0.35829535126686096,
                0.9293444752693176,
                -0.08296331018209457,
                -0.03256320208311081
            ],
            "scale" : [
                2.7908618450164795,
                0.0377497598528862,
                2.506340265274048
            ],
            "translation" : [
                5.20001220703125,
                5.976618766784668,
                -6.099168300628662
            ]
        },
        {
            "mesh" : 3,
            "name" : "Cylinder.005",
            "rotation" : [
                0.3560248613357544,
                0.8398301005363464,
                0.0008068314054980874,
                0.4097939133644104
            ],
            "scale" : [
                2.7016985416412354,
                0.036543723195791245,
                2.4262664318084717
            ],
            "translation" : [
                1.0684359073638916,
                1.7746858596801758,
                -5.41513204574585
            ]
        }
    ],
    "animations" : [
        {
            "channels" : [
                {
                    "sampler" : 0,
                    "target" : {
                        "node" : 1,
                        "path" : "translation"
                    }
                },
                {
                    "sampler" : 1,
                    "target" : {
                        "node" : 1,
                        "path" : "rotation"
                    }
                },
                {
                    "sampler" : 2,
                    "target" : {
                        "node" : 1,
                        "path" : "scale"
                    }
                }
            ],
            "name" : "SphereAction",
            "samplers" : [
                {
                    "input" : 16,
                    "interpolation" : "LINEAR",
                    "output" : 17
                },
                {
                    "input" : 18,
                    "interpolation" : "STEP",
                    "output" : 19
                },
                {
                    "input" : 20,
                    "interpolation" : "STEP",
                    "output" : 21
                }
            ]
        },
        {
            "channels" : [
                {
                    "sampler" : 0,
                    "target" : {
                        "node" : 2,
                        "path" : "translation"
                    }
                },
                {
                    "sampler" : 1,
                    "target" : {
                        "node" : 2,
                        "path" : "rotation"
                    }
                }
            ],
            "name" : "CylinderAction",
            "samplers" : [
                {
                    "input" : 22,
                    "interpolation" : "LINEAR",
                    "output" : 23
                },
                {
                    "input" : 22,
                    "interpolation" : "LINEAR",
                    "output" : 24
                }
            ]
        },
        {
            "channels" : [
                {
                    "sampler" : 0,
                    "target" : {
                        "node" : 3,
                        "path" : "translation"
                    }
                },
                {
                    "sampler" : 1,
                    "target" : {
                        "node" : 3,
                        "path" : "rotation"
                    }
                }
            ],
            "name" : "Cylinder.001Action",
            "samplers" : [
                {
                    "input" : 16,
                    "interpolation" : "LINEAR",
                    "output" : 25
                },
                {
                    "input" : 16,
                    "interpolation" : "LINEAR",
                    "output" : 26
                }
            ]
        },
        {
            "channels" : [
                {
                    "sampler" : 0,
                    "target" : {
                        "node" : 4,
                        "path" : "translation"
                    }
                },
                {
                    "sampler" : 1,
                    "target" : {
                        "node" : 4,
                        "path" : "rotation"
                    }
                }
            ],
            "name" : "Cylinder.002Action",
            "samplers" : [
                {
                    "input" : 16,
                    "interpolation" : "LINEAR",
                    "output" : 27
                },
                {
                    "input" : 16,
                    "interpolation" : "LINEAR",
                    "output" : 28
                }
            ]
        },
        {
            "channels" : [
                {
                    "sampler" : 0,
                    "target" : {
                        "node" : 5,
                        "path" : "translation"
                    }
                },
                {
                    "sampler" : 1,
                    "target" : {
                        "node" : 5,
                        "path" : "rotation"
                    }
                }
            ],
            "name" : "Cylinder.003Action",
            "samplers" : [
                {
                    "input" : 16,
                    "interpolation" : "LINEAR",
                    "output" : 29
                },
                {
                    "input" : 16,
                    "interpolation" : "LINEAR",
                    "output" : 30
                }
            ]
        },
        {
            "channels" : [
                {
                    "sampler" : 0,
                    "target" : {
                        "node" : 6,
                        "path" : "translation"
                    }
                },
                {
                    "sampler" : 1,
                    "target" : {
                        "node" : 6,
                        "path" : "rotation"
                    }
                }
            ],
            "name" : "Cylinder.004Action",
            "samplers" : [
                {
                    "input" : 16,
                    "interpolation" : "LINEAR",
                    "output" : 31
                },
                {
                    "input" : 16,
                    "interpolation" : "LINEAR",
                    "output" : 32
                }
            ]
        },
        {
            "channels" : [
                {
                    "sampler" : 0,
                    "target" : {
                        "node" : 7,
                        "path" : "translation"
                    }
                },
                {
                    "sampler" : 1,
                    "target" : {
                        "node" : 7,
                        "path" : "rotation"
                    }
                }
            ],
            "name" : "Cylinder.005Action",
            "samplers" : [
                {
                    "input" : 16,
                    "interpolation" : "LINEAR",
                    "output" : 33
                },
                {
                    "input" : 16,
                    "interpolation" : "LINEAR",
                    "output" : 34
                }
            ]
        }
    ],
    "materials" : [
        {
            "doubleSided" : true,
            "name" : "Material.004",
            "pbrMetallicRoughness" : {
                "baseColorFactor" : [
                    0.43327102065086365,
                    0.28311634063720703,
                    0.5544766187667847,
                    1
                ],
                "metallicFactor" : 0,
                "roughnessFactor" : 0.5
            }
        },
        {
            "doubleSided" : true,
            "emissiveFactor" : [
                1,
                0.13426754623651505,
                0.03444706555455923
            ],
            "name" : "Material.002",
            "pbrMetallicRoughness" : {
                "baseColorFactor" : [
                    1,
                    0.05628788843750954,
                    0.008819414302706718,
                    1
                ],
                "metallicFactor" : 0,
                "roughnessFactor" : 0.33636364340782166
            }
        },
        {
            "doubleSided" : true,
            "name" : "Material.003",
            "pbrMetallicRoughness" : {
                "baseColorFactor" : [
                    1,
                    0.37088415026664734,
                    0.04830034449696541,
                    1
                ],
                "metallicFactor" : 0.022727273404598236,
                "roughnessFactor" : 0.06363638490438461
            }
        },
        {
            "doubleSided" : true,
            "name" : "Material.001",
            "pbrMetallicRoughness" : {}
        }
    ],
    "meshes" : [
        {
            "name" : "Plane",
            "primitives" : [
                {
                    "attributes" : {
                        "POSITION" : 0,
                        "NORMAL" : 1,
                        "TEXCOORD_0" : 2
                    },
                    "indices" : 3,
                    "material" : 0
                }
            ]
        },
        {
            "name" : "Sphere",
            "primitives" : [
                {
                    "attributes" : {
                        "POSITION" : 4,
                        "NORMAL" : 5,
                        "TEXCOORD_0" : 6
                    },
                    "indices" : 7,
                    "material" : 1
                }
            ]
        },
        {
            "name" : "Cylinder",
            "primitives" : [
                {
                    "attributes" : {
                        "POSITION" : 8,
                        "NORMAL" : 9,
                        "TEXCOORD_0" : 10
                    },
                    "indices" : 11,
                    "material" : 2
                }
            ]
        },
        {
            "name" : "Cylinder.001",
            "primitives" : [
                {
                    "attributes" : {
                        "POSITION" : 12,
                        "NORMAL" : 13,
                        "TEXCOORD_0" : 14
                    },
                    "indices" : 15,
                    "material" : 3
                }
            ]
        }
    ],
    "accessors" : [
        {
            "bufferView" : 0,
            "componentType" : 5126,
            "count" : 48,
            "max" : [
                1,
                1.3840728998184204,
                1
            ],
            "min" : [
                -1,
                0,
                -1
            ],
            "type" : "VEC3"
        },
        {
            "bufferView" : 1,
            "componentType" : 5126,
            "count" : 48,
            "type" : "VEC3"
        },
        {
            "bufferView" : 2,
            "componentType" : 5126,
            "count" : 48,
            "type" : "VEC2"
        },
        {
            "bufferView" : 3,
            "componentType" : 5123,
            "count" : 72,
            "type" : "SCALAR"
        },
        {
            "bufferView" : 4,
            "componentType" : 5126,
            "count" : 1984,
            "max" : [
                0.9999997019767761,
                1,
                0.9999994039535522
            ],
            "min" : [
                -0.9999990463256836,
                -1,
                -0.9999987483024597
            ],
            "type" : "VEC3"
        },
        {
            "bufferView" : 5,
            "componentType" : 5126,
            "count" : 1984,
            "type" : "VEC3"
        },
        {
            "bufferView" : 6,
            "componentType" : 5126,
            "count" : 1984,
            "type" : "VEC2"
        },
        {
            "bufferView" : 7,
            "componentType" : 5123,
            "count" : 2880,
            "type" : "SCALAR"
        },
        {
            "bufferView" : 8,
            "componentType" : 5126,
            "count" : 12288,
            "max" : [
                0.9942223429679871,
                1,
                0.9942224025726318
            ],
            "min" : [
                -0.9942223429679871,
                -1,
                -0.9942223429679871
            ],
            "type" : "VEC3"
        },
        {
            "bufferView" : 9,
            "componentType" : 5126,
            "count" : 12288,
            "type" : "VEC3"
        },
        {
            "bufferView" : 10,
            "componentType" : 5126,
            "count" : 12288,
            "type" : "VEC2"
        },
        {
            "bufferView" : 11,
            "componentType" : 5123,
            "count" : 18420,
            "type" : "SCALAR"
        },
        {
            "bufferView" : 12,
            "componentType" : 5126,
            "count" : 192,
            "max" : [
                1,
                1,
                1
            ],
            "min" : [
                -1,
                -1,
                -1
            ],
            "type" : "VEC3"
        },
        {
            "bufferView" : 13,
            "componentType" : 5126,
            "count" : 192,
            "type" : "VEC3"
        },
        {
            "bufferView" : 14,
            "componentType" : 5126,
            "count" : 192,
            "type" : "VEC2"
        },
        {
            "bufferView" : 15,
            "componentType" : 5123,
            "count" : 372,
            "type" : "SCALAR"
        },
        {
            "bufferView" : 16,
            "componentType" : 5126,
            "count" : 251,
            "max" : [
                10
            ],
            "min" : [
                0
            ],
            "type" : "SCALAR"
        },
        {
            "bufferView" : 17,
            "componentType" : 5126,
            "count" : 251,
            "type" : "VEC3"
        },
        {
            "bufferView" : 18,
            "componentType" : 5126,
            "count" : 1,
            "max" : [
                4.4
            ],
            "min" : [
                4.4
            ],
            "type" : "SCALAR"
        },
        {
            "bufferView" : 19,
            "componentType" : 5126,
            "count" : 1,
            "type" : "VEC4"
        },
        {
            "bufferView" : 20,
            "componentType" : 5126,
            "count" : 1,
            "max" : [
                5.64
            ],
            "min" : [
                5.64
            ],
            "type" : "SCALAR"
        },
        {
            "bufferView" : 21,
            "componentType" : 5126,
            "count" : 1,
            "type" : "VEC3"
        },
        {
            "bufferView" : 22,
            "componentType" : 5126,
            "count" : 250,
            "max" : [
                10
            ],
            "min" : [
                0.04
            ],
            "type" : "SCALAR"
        },
        {
            "bufferView" : 23,
            "componentType" : 5126,
            "count" : 250,
            "type" : "VEC3"
        },
        {
            "bufferView" : 24,
            "componentType" : 5126,
            "count" : 250,
            "type" : "VEC4"
        },
        {
            "bufferView" : 25,
            "componentType" : 5126,
            "count" : 251,
            "type" : "VEC3"
        },
        {
            "bufferView" : 26,
            "componentType" : 5126,
            "count" : 251,
            "type" : "VEC4"
        },
        {
            "bufferView" : 27,
            "componentType" : 5126,
            "count" : 251,
            "type" : "VEC3"
        },
        {
            "bufferView" : 28,
            "componentType" : 5126,
            "count" : 251,
            "type" : "VEC4"
        },
        {
            "bufferView" : 29,
            "componentType" : 5126,
            "count" : 251,
            "type" : "VEC3"
        },
        {
            "bufferView" : 30,
            "componentType" : 5126,
            "count" : 251,
            "type" : "VEC4"
        },
        {
            "bufferView" : 31,
            "componentType" : 5126,
            "count" : 251,
            "type" : "VEC3"
        },
        {
            "bufferView" : 32,
            "componentType" : 5126,
            "count" : 251,
            "type" : "VEC4"
        },
        {
            "bufferView" : 33,
            "componentType" : 5126,
            "count" : 251,
            "type" : "VEC3"
        },
        {
            "bufferView" : 34,
            "componentType" : 5126,
            "count" : 251,
            "type" : "VEC4"
        }
    ],
    "bufferViews" : [
        {
            "buffer" : 0,
            "byteLength" : 576,
            "byteOffset" : 0
        },
        {
            "buffer" : 0,
            "byteLength" : 576,
            "byteOffset" : 576
        },
        {
            "buffer" : 0,
            "byteLength" : 384,
            "byteOffset" : 1152
        },
        {
            "buffer" : 0,
            "byteLength" : 144,
            "byteOffset" : 1536
        },
        {
            "buffer" : 0,
            "byteLength" : 23808,
            "byteOffset" : 1680
        },
        {
            "buffer" : 0,
            "byteLength" : 23808,
            "byteOffset" : 25488
        },
        {
            "buffer" : 0,
            "byteLength" : 15872,
            "byteOffset" : 49296
        },
        {
            "buffer" : 0,
            "byteLength" : 5760,
            "byteOffset" : 65168
        },
        {
            "buffer" : 0,
            "byteLength" : 147456,
            "byteOffset" : 70928
        },
        {
            "buffer" : 0,
            "byteLength" : 147456,
            "byteOffset" : 218384
        },
        {
            "buffer" : 0,
            "byteLength" : 98304,
            "byteOffset" : 365840
        },
        {
            "buffer" : 0,
            "byteLength" : 36840,
            "byteOffset" : 464144
        },
        {
            "buffer" : 0,
            "byteLength" : 2304,
            "byteOffset" : 500984
        },
        {
            "buffer" : 0,
            "byteLength" : 2304,
            "byteOffset" : 503288
        },
        {
            "buffer" : 0,
            "byteLength" : 1536,
            "byteOffset" : 505592
        },
        {
            "buffer" : 0,
            "byteLength" : 744,
            "byteOffset" : 507128
        },
        {
            "buffer" : 0,
            "byteLength" : 1004,
            "byteOffset" : 507872
        },
        {
            "buffer" : 0,
            "byteLength" : 3012,
            "byteOffset" : 508876
        },
        {
            "buffer" : 0,
            "byteLength" : 4,
            "byteOffset" : 511888
        },
        {
            "buffer" : 0,
            "byteLength" : 16,
            "byteOffset" : 511892
        },
        {
            "buffer" : 0,
            "byteLength" : 4,
            "byteOffset" : 511908
        },
        {
            "buffer" : 0,
            "byteLength" : 12,
            "byteOffset" : 511912
        },
        {
            "buffer" : 0,
            "byteLength" : 1000,
            "byteOffset" : 511924
        },
        {
            "buffer" : 0,
            "byteLength" : 3000,
            "byteOffset" : 512924
        },
        {
            "buffer" : 0,
            "byteLength" : 4000,
            "byteOffset" : 515924
        },
        {
            "buffer" : 0,
            "byteLength" : 3012,
            "byteOffset" : 519924
        },
        {
            "buffer" : 0,
            "byteLength" : 4016,
            "byteOffset" : 522936
        },
        {
            "buffer" : 0,
            "byteLength" : 3012,
            "byteOffset" : 526952
        },
        {
            "buffer" : 0,
            "byteLength" : 4016,
            "byteOffset" : 529964
        },
        {
            "buffer" : 0,
            "byteLength" : 3012,
            "byteOffset" : 533980
        },
        {
            "buffer" : 0,
            "byteLength" : 4016,
            "byteOffset" : 536992
        },
        {
            "buffer" : 0,
            "byteLength" : 3012,
            "byteOffset" : 541008
        },
        {
            "buffer" : 0,
            "byteLength" : 4016,
            "byteOffset" : 544020
        },
        {
            "buffer" : 0,
            "byteLength" : 3012,
            "byteOffset" : 548036
        },
        {
            "buffer" : 0,
            "byteLength" : 4016,
            "byteOffset" : 551048
        }
    ],
    "buffers" : [
        {
            "byteLength" : 555064,
            "uri" : "\u0421\u0426\u0415\u041d\u0410.bin"
        }
    ]
}
